<?xml version="1.0" encoding="UTF-8" standalone="no"?>
<!DOCTYPE svg PUBLIC "-//W3C//DTD SVG 1.1//EN"
 "http://www.w3.org/Graphics/SVG/1.1/DTD/svg11.dtd">
<!-- Generated by graphviz version 2.47.0 (20210316.0004)
 -->
<!-- Title: dependencies Pages: 1 -->
<svg width="2738pt" height="284pt"
 viewBox="0.00 0.00 2738.00 284.00" xmlns="http://www.w3.org/2000/svg" xmlns:xlink="http://www.w3.org/1999/xlink">
<g id="graph0" class="graph" transform="scale(1 1) rotate(0) translate(4 280)">
<title>dependencies</title>
<polygon fill="white" stroke="transparent" points="-4,4 -4,-280 2734,-280 2734,4 -4,4"/>
<text text-anchor="start" x="1344.01" y="-42.4" font-family="sans-serif" font-weight="bold" font-size="14.00">Legend</text>
<polygon fill="#ffffb3" stroke="transparent" points="1131,-10 1131,-30 1151,-30 1151,-10 1131,-10"/>
<text text-anchor="start" x="1154.63" y="-15.4" font-family="sans-serif" font-size="14.00"> &#160;Declarations</text>
<polygon fill="#8dd3c7" stroke="transparent" points="1244,-10 1244,-30 1264,-30 1264,-10 1244,-10"/>
<text text-anchor="start" x="1267.73" y="-15.4" font-family="sans-serif" font-size="14.00"> &#160;Module</text>
<polygon fill="#80b1d3" stroke="transparent" points="1330,-10 1330,-30 1350,-30 1350,-10 1330,-10"/>
<text text-anchor="start" x="1353.78" y="-15.4" font-family="sans-serif" font-size="14.00"> &#160;Bootstrap</text>
<polygon fill="#fdb462" stroke="transparent" points="1427,-10 1427,-30 1447,-30 1447,-10 1427,-10"/>
<text text-anchor="start" x="1450.67" y="-15.4" font-family="sans-serif" font-size="14.00"> &#160;Providers</text>
<polygon fill="#fb8072" stroke="transparent" points="1523,-10 1523,-30 1543,-30 1543,-10 1523,-10"/>
<text text-anchor="start" x="1546.73" y="-15.4" font-family="sans-serif" font-size="14.00"> &#160;Exports</text>
<g id="clust1" class="cluster">
<title>cluster_AppModule</title>
<polygon fill="none" stroke="black" stroke-dasharray="1,5" points="8,-70 8,-268 2722,-268 2722,-70 8,-70"/>
</g>
<g id="clust2" class="cluster">
<title>cluster_AppModule_declarations</title>
<polygon fill="none" stroke="black" points="168,-78 168,-130 2714,-130 2714,-78 168,-78"/>
</g>
<g id="clust19" class="cluster">
<title>cluster_AppModule_imports</title>
<polygon fill="none" stroke="black" points="16,-78 16,-130 160,-130 160,-78 16,-78"/>
</g>
<g id="clust21" class="cluster">
<title>cluster_AppModule_bootstrap</title>
<polygon fill="none" stroke="black" points="1328,-208 1328,-260 1452,-260 1452,-208 1328,-208"/>
</g>
<!-- AlertasComponent -->
<g id="node1" class="node">
<title>AlertasComponent</title>
<polygon fill="#ffffb3" stroke="black" points="2705.75,-122 2584.25,-122 2584.25,-86 2705.75,-86 2705.75,-122"/>
<text text-anchor="middle" x="2645" y="-99.8" font-family="Times,serif" font-size="14.00">AlertasComponent</text>
</g>
<!-- AppModule -->
<g id="node17" class="node">
<title>AppModule</title>
<polygon fill="#8dd3c7" stroke="black" points="1431.66,-187 1428.66,-191 1407.66,-191 1404.66,-187 1348.34,-187 1348.34,-151 1431.66,-151 1431.66,-187"/>
<text text-anchor="middle" x="1390" y="-164.8" font-family="Times,serif" font-size="14.00">AppModule</text>
</g>
<!-- AlertasComponent&#45;&gt;AppModule -->
<g id="edge1" class="edge">
<title>AlertasComponent&#45;&gt;AppModule</title>
<path fill="none" stroke="black" d="M2645,-122.32C2645,-145.66 2645,-183 2645,-183 2645,-183 1441.76,-183 1441.76,-183"/>
<polygon fill="black" stroke="black" points="1441.76,-179.5 1431.76,-183 1441.76,-186.5 1441.76,-179.5"/>
</g>
<!-- AppComponent -->
<g id="node2" class="node">
<title>AppComponent</title>
<polygon fill="#ffffb3" stroke="black" points="2565.94,-122 2460.06,-122 2460.06,-86 2565.94,-86 2565.94,-122"/>
<text text-anchor="middle" x="2513" y="-99.8" font-family="Times,serif" font-size="14.00">AppComponent</text>
</g>
<!-- AppComponent&#45;&gt;AppModule -->
<g id="edge2" class="edge">
<title>AppComponent&#45;&gt;AppModule</title>
<path fill="none" stroke="black" d="M2513,-122.16C2513,-144.35 2513,-179 2513,-179 2513,-179 1441.97,-179 1441.97,-179"/>
<polygon fill="black" stroke="black" points="1441.97,-175.5 1431.97,-179 1441.97,-182.5 1441.97,-175.5"/>
</g>
<!-- CadastrarComponent -->
<g id="node3" class="node">
<title>CadastrarComponent</title>
<polygon fill="#ffffb3" stroke="black" points="2442.47,-122 2307.53,-122 2307.53,-86 2442.47,-86 2442.47,-122"/>
<text text-anchor="middle" x="2375" y="-99.8" font-family="Times,serif" font-size="14.00">CadastrarComponent</text>
</g>
<!-- CadastrarComponent&#45;&gt;AppModule -->
<g id="edge3" class="edge">
<title>CadastrarComponent&#45;&gt;AppModule</title>
<path fill="none" stroke="black" d="M2375,-122.28C2375,-143.32 2375,-175 2375,-175 2375,-175 1441.7,-175 1441.7,-175"/>
<polygon fill="black" stroke="black" points="1441.7,-171.5 1431.7,-175 1441.7,-178.5 1441.7,-171.5"/>
</g>
<!-- ComunidadeComponent -->
<g id="node4" class="node">
<title>ComunidadeComponent</title>
<polygon fill="#ffffb3" stroke="black" points="2289.38,-122 2136.62,-122 2136.62,-86 2289.38,-86 2289.38,-122"/>
<text text-anchor="middle" x="2213" y="-99.8" font-family="Times,serif" font-size="14.00">ComunidadeComponent</text>
</g>
<!-- ComunidadeComponent&#45;&gt;AppModule -->
<g id="edge4" class="edge">
<title>ComunidadeComponent&#45;&gt;AppModule</title>
<path fill="none" stroke="black" d="M2187.52,-122.22C2187.52,-140.83 2187.52,-167 2187.52,-167 2187.52,-167 1441.76,-167 1441.76,-167"/>
<polygon fill="black" stroke="black" points="1441.76,-163.5 1431.76,-167 1441.76,-170.5 1441.76,-163.5"/>
</g>
<!-- ComunidadeComponent&#45;&gt;AppModule -->
<g id="edge5" class="edge">
<title>ComunidadeComponent&#45;&gt;AppModule</title>
<path fill="none" stroke="black" d="M2238.48,-122.31C2238.48,-142.15 2238.48,-171 2238.48,-171 2238.48,-171 1441.79,-171 1441.79,-171"/>
<polygon fill="black" stroke="black" points="1441.79,-167.5 1431.79,-171 1441.79,-174.5 1441.79,-167.5"/>
</g>
<!-- ComunidadeDeleteComponent -->
<g id="node5" class="node">
<title>ComunidadeDeleteComponent</title>
<polygon fill="#ffffb3" stroke="black" points="2118.91,-122 1929.09,-122 1929.09,-86 2118.91,-86 2118.91,-122"/>
<text text-anchor="middle" x="2024" y="-99.8" font-family="Times,serif" font-size="14.00">ComunidadeDeleteComponent</text>
</g>
<!-- ComunidadeDeleteComponent&#45;&gt;AppModule -->
<g id="edge6" class="edge">
<title>ComunidadeDeleteComponent&#45;&gt;AppModule</title>
<path fill="none" stroke="black" d="M2024,-122.02C2024,-139.37 2024,-163 2024,-163 2024,-163 1442.09,-163 1442.09,-163"/>
<polygon fill="black" stroke="black" points="1442.09,-159.5 1432.09,-163 1442.09,-166.5 1442.09,-159.5"/>
</g>
<!-- ComunidadeEditComponent -->
<g id="node6" class="node">
<title>ComunidadeEditComponent</title>
<polygon fill="#ffffb3" stroke="black" points="1911.21,-122 1734.79,-122 1734.79,-86 1911.21,-86 1911.21,-122"/>
<text text-anchor="middle" x="1823" y="-99.8" font-family="Times,serif" font-size="14.00">ComunidadeEditComponent</text>
</g>
<!-- ComunidadeEditComponent&#45;&gt;AppModule -->
<g id="edge7" class="edge">
<title>ComunidadeEditComponent&#45;&gt;AppModule</title>
<path fill="none" stroke="black" d="M1823,-122.01C1823,-138.05 1823,-159 1823,-159 1823,-159 1441.91,-159 1441.91,-159"/>
<polygon fill="black" stroke="black" points="1441.91,-155.5 1431.91,-159 1441.91,-162.5 1441.91,-155.5"/>
</g>
<!-- ComunidadeViewComponent -->
<g id="node7" class="node">
<title>ComunidadeViewComponent</title>
<polygon fill="#ffffb3" stroke="black" points="1716.7,-122 1533.3,-122 1533.3,-86 1716.7,-86 1716.7,-122"/>
<text text-anchor="middle" x="1625" y="-99.8" font-family="Times,serif" font-size="14.00">ComunidadeViewComponent</text>
</g>
<!-- ComunidadeViewComponent&#45;&gt;AppModule -->
<g id="edge8" class="edge">
<title>ComunidadeViewComponent&#45;&gt;AppModule</title>
<path fill="none" stroke="black" d="M1625,-122.12C1625,-136.78 1625,-155 1625,-155 1625,-155 1441.74,-155 1441.74,-155"/>
<polygon fill="black" stroke="black" points="1441.74,-151.5 1431.74,-155 1441.74,-158.5 1441.74,-151.5"/>
</g>
<!-- EntrarComponent -->
<g id="node8" class="node">
<title>EntrarComponent</title>
<polygon fill="#ffffb3" stroke="black" points="1515.31,-122 1398.69,-122 1398.69,-86 1515.31,-86 1515.31,-122"/>
<text text-anchor="middle" x="1457" y="-99.8" font-family="Times,serif" font-size="14.00">EntrarComponent</text>
</g>
<!-- EntrarComponent&#45;&gt;AppModule -->
<g id="edge9" class="edge">
<title>EntrarComponent&#45;&gt;AppModule</title>
<path fill="none" stroke="black" d="M1415.34,-122.11C1415.34,-122.11 1415.34,-140.99 1415.34,-140.99"/>
<polygon fill="black" stroke="black" points="1411.84,-140.99 1415.34,-150.99 1418.84,-140.99 1411.84,-140.99"/>
</g>
<!-- HomeComponent -->
<g id="node9" class="node">
<title>HomeComponent</title>
<polygon fill="#ffffb3" stroke="black" points="1380.55,-122 1265.45,-122 1265.45,-86 1380.55,-86 1380.55,-122"/>
<text text-anchor="middle" x="1323" y="-99.8" font-family="Times,serif" font-size="14.00">HomeComponent</text>
</g>
<!-- HomeComponent&#45;&gt;AppModule -->
<g id="edge10" class="edge">
<title>HomeComponent&#45;&gt;AppModule</title>
<path fill="none" stroke="black" d="M1364.47,-122.11C1364.47,-122.11 1364.47,-140.99 1364.47,-140.99"/>
<polygon fill="black" stroke="black" points="1360.97,-140.99 1364.47,-150.99 1367.97,-140.99 1360.97,-140.99"/>
</g>
<!-- InicioComponent -->
<g id="node10" class="node">
<title>InicioComponent</title>
<polygon fill="#ffffb3" stroke="black" points="1246.99,-122 1133.01,-122 1133.01,-86 1246.99,-86 1246.99,-122"/>
<text text-anchor="middle" x="1190" y="-99.8" font-family="Times,serif" font-size="14.00">InicioComponent</text>
</g>
<!-- InicioComponent&#45;&gt;AppModule -->
<g id="edge11" class="edge">
<title>InicioComponent&#45;&gt;AppModule</title>
<path fill="none" stroke="black" d="M1190,-122.12C1190,-136.78 1190,-155 1190,-155 1190,-155 1338.07,-155 1338.07,-155"/>
<polygon fill="black" stroke="black" points="1338.07,-158.5 1348.07,-155 1338.07,-151.5 1338.07,-158.5"/>
</g>
<!-- MenuComponent -->
<g id="node11" class="node">
<title>MenuComponent</title>
<polygon fill="#ffffb3" stroke="black" points="1114.99,-122 1001.01,-122 1001.01,-86 1114.99,-86 1114.99,-122"/>
<text text-anchor="middle" x="1058" y="-99.8" font-family="Times,serif" font-size="14.00">MenuComponent</text>
</g>
<!-- MenuComponent&#45;&gt;AppModule -->
<g id="edge12" class="edge">
<title>MenuComponent&#45;&gt;AppModule</title>
<path fill="none" stroke="black" d="M1058,-122.01C1058,-138.05 1058,-159 1058,-159 1058,-159 1338.29,-159 1338.29,-159"/>
<polygon fill="black" stroke="black" points="1338.29,-162.5 1348.29,-159 1338.29,-155.5 1338.29,-162.5"/>
</g>
<!-- PostagemDeletComponent -->
<g id="node12" class="node">
<title>PostagemDeletComponent</title>
<polygon fill="#ffffb3" stroke="black" points="983.09,-122 816.91,-122 816.91,-86 983.09,-86 983.09,-122"/>
<text text-anchor="middle" x="900" y="-99.8" font-family="Times,serif" font-size="14.00">PostagemDeletComponent</text>
</g>
<!-- PostagemDeletComponent&#45;&gt;AppModule -->
<g id="edge13" class="edge">
<title>PostagemDeletComponent&#45;&gt;AppModule</title>
<path fill="none" stroke="black" d="M900,-122.02C900,-139.37 900,-163 900,-163 900,-163 1338.22,-163 1338.22,-163"/>
<polygon fill="black" stroke="black" points="1338.22,-166.5 1348.22,-163 1338.22,-159.5 1338.22,-166.5"/>
</g>
<!-- PostagemEditComponent -->
<g id="node13" class="node">
<title>PostagemEditComponent</title>
<polygon fill="#ffffb3" stroke="black" points="798.6,-122 639.4,-122 639.4,-86 798.6,-86 798.6,-122"/>
<text text-anchor="middle" x="719" y="-99.8" font-family="Times,serif" font-size="14.00">PostagemEditComponent</text>
</g>
<!-- PostagemEditComponent&#45;&gt;AppModule -->
<g id="edge14" class="edge">
<title>PostagemEditComponent&#45;&gt;AppModule</title>
<path fill="none" stroke="black" d="M719,-122.22C719,-140.83 719,-167 719,-167 719,-167 1338.28,-167 1338.28,-167"/>
<polygon fill="black" stroke="black" points="1338.28,-170.5 1348.28,-167 1338.28,-163.5 1338.28,-170.5"/>
</g>
<!-- RodapeComponent -->
<g id="node14" class="node">
<title>RodapeComponent</title>
<polygon fill="#ffffb3" stroke="black" points="621.1,-122 496.9,-122 496.9,-86 621.1,-86 621.1,-122"/>
<text text-anchor="middle" x="559" y="-99.8" font-family="Times,serif" font-size="14.00">RodapeComponent</text>
</g>
<!-- RodapeComponent&#45;&gt;AppModule -->
<g id="edge15" class="edge">
<title>RodapeComponent&#45;&gt;AppModule</title>
<path fill="none" stroke="black" d="M559,-122.31C559,-142.15 559,-171 559,-171 559,-171 1338.22,-171 1338.22,-171"/>
<polygon fill="black" stroke="black" points="1338.22,-174.5 1348.22,-171 1338.22,-167.5 1338.22,-174.5"/>
</g>
<!-- SobreNosComponent -->
<g id="node15" class="node">
<title>SobreNosComponent</title>
<polygon fill="#ffffb3" stroke="black" points="479.04,-122 342.96,-122 342.96,-86 479.04,-86 479.04,-122"/>
<text text-anchor="middle" x="411" y="-99.8" font-family="Times,serif" font-size="14.00">SobreNosComponent</text>
</g>
<!-- SobreNosComponent&#45;&gt;AppModule -->
<g id="edge16" class="edge">
<title>SobreNosComponent&#45;&gt;AppModule</title>
<path fill="none" stroke="black" d="M411,-122.28C411,-143.32 411,-175 411,-175 411,-175 1338.25,-175 1338.25,-175"/>
<polygon fill="black" stroke="black" points="1338.25,-178.5 1348.25,-175 1338.25,-171.5 1338.25,-178.5"/>
</g>
<!-- UsuarioEditComponent -->
<g id="node16" class="node">
<title>UsuarioEditComponent</title>
<polygon fill="#ffffb3" stroke="black" points="324.48,-122 175.52,-122 175.52,-86 324.48,-86 324.48,-122"/>
<text text-anchor="middle" x="250" y="-99.8" font-family="Times,serif" font-size="14.00">UsuarioEditComponent</text>
</g>
<!-- UsuarioEditComponent&#45;&gt;AppModule -->
<g id="edge17" class="edge">
<title>UsuarioEditComponent&#45;&gt;AppModule</title>
<path fill="none" stroke="black" d="M250,-122.16C250,-144.35 250,-179 250,-179 250,-179 1338.07,-179 1338.07,-179"/>
<polygon fill="black" stroke="black" points="1338.07,-182.5 1348.07,-179 1338.07,-175.5 1338.07,-182.5"/>
</g>
<!-- AppComponent  -->
<g id="node19" class="node">
<title>AppComponent </title>
<polygon fill="#80b1d3" stroke="black" points="1444.44,-252 1335.56,-252 1335.56,-216 1444.44,-216 1444.44,-252"/>
<text text-anchor="middle" x="1390" y="-229.8" font-family="Times,serif" font-size="14.00">AppComponent </text>
</g>
<!-- AppModule&#45;&gt;AppComponent  -->
<g id="edge19" class="edge">
<title>AppModule&#45;&gt;AppComponent </title>
<path fill="none" stroke="black" stroke-dasharray="1,5" d="M1390,-187.11C1390,-187.11 1390,-205.99 1390,-205.99"/>
<polygon fill="black" stroke="black" points="1386.5,-205.99 1390,-215.99 1393.5,-205.99 1386.5,-205.99"/>
</g>
<!-- AppRoutingModule -->
<g id="node18" class="node">
<title>AppRoutingModule</title>
<polygon fill="#8dd3c7" stroke="black" points="152.27,-122 149.27,-126 128.27,-126 125.27,-122 23.73,-122 23.73,-86 152.27,-86 152.27,-122"/>
<text text-anchor="middle" x="88" y="-99.8" font-family="Times,serif" font-size="14.00">AppRoutingModule</text>
</g>
<!-- AppRoutingModule&#45;&gt;AppModule -->
<g id="edge18" class="edge">
<title>AppRoutingModule&#45;&gt;AppModule</title>
<path fill="none" stroke="black" d="M88,-122.32C88,-145.66 88,-183 88,-183 88,-183 1338.15,-183 1338.15,-183"/>
<polygon fill="black" stroke="black" points="1338.15,-186.5 1348.15,-183 1338.15,-179.5 1338.15,-186.5"/>
</g>
</g>
</svg>
